<svg width="41" height="38" viewBox="0 0 41 38" fill="none" xmlns="http://www.w3.org/2000/svg">
<g clip-path="url(#clip0)">
<path d="M41 7.38892H7.41602V36.4167H41V7.38892Z" fill="#FBB02D" fill-opacity="0.8"/>
<path d="M10.4884 38C10.2765 38 9.95866 37.8944 9.74677 37.7889C9.21705 37.4722 8.89922 36.9444 8.89922 36.4167V33.4611H1.58915C0.741602 33.4611 0 32.7222 0 31.8778V1.58333C0 0.738889 0.741602 0 1.58915 0H36.5504C37.5039 0 38.1395 0.738889 38.1395 1.58333V31.8778C38.1395 32.7222 37.3979 33.4611 36.5504 33.4611H17.0568L11.4419 37.6833C11.124 37.8944 10.8062 38 10.4884 38ZM3.17829 30.2944H10.4884C11.3359 30.2944 12.0775 31.0333 12.0775 31.8778V33.25L15.5736 30.6111C15.8915 30.4 16.2093 30.2944 16.5271 30.2944H34.9612V3.16667H3.17829V30.2944Z" fill="#3D3D46"/>
<path d="M12.7132 25.5446C11.8656 25.5446 11.124 24.8057 11.124 23.9612V22.8001C11.124 21.9557 11.8656 21.2168 12.7132 21.2168C13.5607 21.2168 14.3023 21.9557 14.3023 22.8001V23.9612C14.3023 24.8057 13.5607 25.5446 12.7132 25.5446Z" fill="#3D3D46"/>
<path d="M19.0697 25.5445C18.2222 25.5445 17.4806 24.8056 17.4806 23.9612V9.81673C17.4806 8.97229 18.2222 8.2334 19.0697 8.2334C19.9173 8.2334 20.6589 8.97229 20.6589 9.81673V23.9612C20.6589 24.8056 19.9173 25.5445 19.0697 25.5445Z" fill="#3D3D46"/>
<path d="M25.4264 25.5445C24.5788 25.5445 23.8372 24.8056 23.8372 23.9611V18.4722C23.8372 17.6278 24.5788 16.8889 25.4264 16.8889C26.2739 16.8889 27.0155 17.6278 27.0155 18.4722V23.9611C27.0155 24.8056 26.2739 25.5445 25.4264 25.5445Z" fill="#3D3D46"/>
</g>
<defs>
<clipPath id="clip0">
<rect width="41" height="38" fill="white"/>
</clipPath>
</defs>
</svg>
